<svg width="363" height="254" viewBox="0 0 363 254" fill="none" xmlns="http://www.w3.org/2000/svg">
<rect width="363" height="254" fill="#F5F5F5"/>
<g filter="url(#filter0_b_0_1)">
<path d="M384 -27H-21V270H384V-27Z" fill="white"/>
</g>
<circle cx="181" cy="134" r="68.5" stroke="black"/>
<path d="M120.244 165.497H127.284L132.775 83.5057C133.296 80.2989 135.342 77.5467 138.259 76.1299C141.176 74.7132 144.598 74.8097 147.431 76.388C150.265 77.9663 152.153 80.8288 152.494 84.0599V85.7967C152.763 93.2491 155.966 100.292 161.403 105.381C166.839 110.472 174.065 113.194 181.5 112.955C188.935 113.194 196.161 110.472 201.598 105.381C207.034 100.292 210.237 93.2491 210.507 85.7967V84.0599C210.631 81.5507 211.738 79.1921 213.588 77.4969C215.438 75.8018 217.88 74.9072 220.384 75.0076C222.792 74.918 225.144 75.7442 226.969 77.3202C228.794 78.8964 229.957 81.106 230.225 83.5057L235.717 165.497H242.757C243.915 165.497 244.986 166.116 245.565 167.123C246.145 168.129 246.145 169.368 245.565 170.374C244.986 171.38 243.915 172 242.757 172H120.243C119.085 172 118.014 171.38 117.435 170.374C116.855 169.368 116.855 168.129 117.435 167.123C118.014 166.116 119.085 165.497 120.244 165.497ZM146.044 84.2084C146.044 82.8043 144.496 81.6221 142.653 81.6221C141.884 81.5468 141.114 81.7517 140.485 82.1998C139.855 82.6475 139.408 83.3082 139.225 84.0603L133.586 165.497H146.007L146.044 84.2084ZM181.5 119.421C175.88 119.45 170.331 118.161 165.295 115.659C160.259 113.158 155.875 109.511 152.494 105.01V165.497H210.507V105.01C207.126 109.511 202.742 113.158 197.706 115.659C192.67 118.161 187.121 119.45 181.5 119.421ZM223.813 83.9125C223.63 83.1604 223.183 82.4996 222.553 82.0515C221.923 81.6038 221.154 81.3985 220.385 81.4738C218.542 81.4738 216.994 82.6564 216.994 84.0602V165.348L229.414 165.349L223.813 83.9125Z" fill="black"/>
<mask id="mask0_0_1" style="mask-type:luminance" maskUnits="userSpaceOnUse" x="158" y="139" width="47" height="47">
<path d="M205 139H158V186H205V139Z" fill="white"/>
</mask>
<g mask="url(#mask0_0_1)">
<mask id="mask1_0_1" style="mask-type:alpha" maskUnits="userSpaceOnUse" x="158" y="139" width="47" height="47">
<path fill-rule="evenodd" clip-rule="evenodd" d="M158 139H205V186H158V139Z" fill="white"/>
</mask>
<g mask="url(#mask1_0_1)">
<path fill-rule="evenodd" clip-rule="evenodd" d="M181.5 186C168.575 186 158 175.425 158 162.382C158.117 149.457 168.575 138.882 181.617 139C194.542 139.117 205 149.575 205 162.735C204.882 175.542 194.425 186 181.5 186Z" fill="#F24088"/>
<path fill-rule="evenodd" clip-rule="evenodd" d="M183.733 159.68L183.028 163.44L189.725 164.38L189.255 166.143L182.675 165.203C182.205 166.73 181.97 168.375 181.383 169.785C180.795 171.43 180.207 173.075 179.502 174.603C178.562 176.6 176.918 178.01 174.685 178.363C173.393 178.598 171.982 178.48 170.925 177.658C170.572 177.423 170.22 176.953 170.22 176.6C170.22 176.13 170.455 175.543 170.807 175.308C171.042 175.19 171.63 175.308 171.982 175.425C172.335 175.778 172.687 176.248 172.922 176.718C173.628 177.658 174.568 177.775 175.508 177.07C176.565 176.13 177.153 174.838 177.505 173.545C178.21 170.725 178.915 168.023 179.502 165.203V164.733L173.275 163.793L173.51 162.03L179.973 162.97L180.795 159.328L174.098 158.27L174.333 156.39L181.265 157.33C181.5 156.625 181.617 156.038 181.852 155.45C182.44 153.335 183.028 151.22 184.438 149.34C185.848 147.46 187.493 146.285 189.96 146.403C191.018 146.403 192.075 146.755 192.78 147.578C192.897 147.695 193.133 147.93 193.133 148.165C193.133 148.635 193.132 149.223 192.78 149.575C192.31 149.928 191.722 149.81 191.252 149.34C190.9 148.988 190.665 148.635 190.313 148.283C189.608 147.343 188.55 147.225 187.727 148.048C187.14 148.635 186.552 149.458 186.2 150.28C185.377 152.748 184.79 155.333 183.967 157.918L190.43 158.858L189.96 160.62L183.733 159.68Z" fill="white"/>
</g>
</g>
<defs>
<filter id="filter0_b_0_1" x="-25" y="-31" width="413" height="305" filterUnits="userSpaceOnUse" color-interpolation-filters="sRGB">
<feFlood flood-opacity="0" result="BackgroundImageFix"/>
<feGaussianBlur in="BackgroundImageFix" stdDeviation="2"/>
<feComposite in2="SourceAlpha" operator="in" result="effect1_backgroundBlur_0_1"/>
<feBlend mode="normal" in="SourceGraphic" in2="effect1_backgroundBlur_0_1" result="shape"/>
</filter>
</defs>
</svg>
