<svg width="221" height="237" viewBox="0 0 221 237" fill="none" xmlns="http://www.w3.org/2000/svg">
<rect width="221" height="237" fill="white"/>
<path d="M21.1317 195.272H31.4247L39.4537 75.6917C40.2153 71.0147 43.2068 67.0008 47.4714 64.9345C51.736 62.8683 56.7401 63.0091 60.8822 65.3109C65.0249 67.6127 67.7865 71.7876 68.2847 76.5V79.033C68.6781 89.9019 73.3614 100.173 81.3102 107.596C89.259 115.02 99.8243 118.991 110.695 118.642C121.565 118.991 132.13 115.02 140.079 107.596C148.028 100.173 152.711 89.9019 153.105 79.033V76.5C153.287 72.8404 154.906 69.4006 157.61 66.9282C160.315 64.4559 163.886 63.1512 167.547 63.2977C171.067 63.167 174.506 64.3719 177.174 66.6705C179.843 68.9693 181.544 72.1918 181.936 75.6917L189.965 195.272H200.258C201.952 195.272 203.518 196.175 204.364 197.643C205.212 199.11 205.212 200.918 204.364 202.385C203.518 203.852 201.952 204.756 200.258 204.756H21.1311C19.4368 204.756 17.8712 203.852 17.0244 202.385C16.1769 200.918 16.1769 199.11 17.0244 197.643C17.8713 196.175 19.4368 195.272 21.1311 195.272L21.1317 195.272ZM58.8534 76.7166C58.8534 74.6687 56.5901 72.9446 53.8954 72.9446L53.896 72.944C52.7719 72.8341 51.6466 73.1335 50.7259 73.7871C49.8052 74.4401 49.1516 75.4037 48.8844 76.5006L40.6394 195.272H58.7994L58.8534 76.7166ZM110.695 128.072C102.477 128.114 94.3635 126.235 87.0012 122.586C79.6377 118.938 73.2286 113.619 68.285 107.055V195.272H153.105V107.055C148.162 113.619 141.752 118.938 134.389 122.586C127.026 126.235 118.913 128.114 110.695 128.072ZM172.56 76.285C172.293 75.1881 171.639 74.2244 170.718 73.5708C169.797 72.9178 168.672 72.6185 167.548 72.7283C164.854 72.7283 162.59 74.453 162.59 76.5004V195.055L180.75 195.056L172.56 76.285Z" fill="#F24088"/>
<g clip-path="url(#clip0_1_22)">
<mask id="mask0_1_22" style="mask-type:alpha" maskUnits="userSpaceOnUse" x="80" y="29" width="62" height="62">
<path fill-rule="evenodd" clip-rule="evenodd" d="M80 29H142V91H80V29Z" fill="white"/>
</mask>
<g mask="url(#mask0_1_22)">
<path fill-rule="evenodd" clip-rule="evenodd" d="M111 91.0002C93.95 91.0002 80 77.0502 80 59.8452C80.155 42.7952 93.95 28.8452 111.155 29.0002C128.205 29.1552 142 42.9502 142 60.3102C141.845 77.2052 128.05 91.0002 111 91.0002Z" fill="#F24088"/>
<path fill-rule="evenodd" clip-rule="evenodd" d="M113.945 56.2801L113.015 61.2401L121.85 62.4801L121.23 64.8051L112.55 63.5651C111.93 65.5801 111.62 67.7501 110.845 69.6101C110.07 71.7801 109.295 73.9501 108.365 75.9651C107.125 78.6001 104.955 80.4601 102.01 80.9251C100.305 81.2351 98.4449 81.0801 97.0499 79.9951C96.5849 79.6851 96.1199 79.0651 96.1199 78.6001C96.1199 77.9801 96.4299 77.2051 96.8949 76.8951C97.2049 76.7401 97.9799 76.8951 98.4449 77.0501C98.9099 77.5151 99.3749 78.1351 99.6849 78.7551C100.615 79.9951 101.855 80.1501 103.095 79.2201C104.49 77.9801 105.265 76.2751 105.73 74.5701C106.66 70.8501 107.59 67.2851 108.365 63.5651V62.9451L100.15 61.7051L100.46 59.3801L108.985 60.6201L110.07 55.8151L101.235 54.4201L101.545 51.9401L110.69 53.1801C111 52.2501 111.155 51.4751 111.465 50.7001C112.24 47.9101 113.015 45.1201 114.875 42.6401C116.735 40.1601 118.905 38.6101 122.16 38.7651C123.555 38.7651 124.95 39.2301 125.88 40.3151C126.035 40.4701 126.345 40.7801 126.345 41.0901C126.345 41.7101 126.345 42.4851 125.88 42.9501C125.26 43.4151 124.485 43.2601 123.865 42.6401C123.4 42.1751 123.09 41.7101 122.625 41.2451C121.695 40.0051 120.3 39.8501 119.215 40.9351C118.44 41.7101 117.665 42.7951 117.2 43.8801C116.115 47.1351 115.34 50.5451 114.255 53.9551L122.78 55.1951L122.16 57.5201L113.945 56.2801" fill="white"/>
</g>
</g>
<defs>
<clipPath id="clip0_1_22">
<rect width="62" height="62" fill="white" transform="translate(80 29)"/>
</clipPath>
</defs>
</svg>
