<svg width="326" height="264" viewBox="0 0 326 264" fill="none" xmlns="http://www.w3.org/2000/svg">
<rect width="326" height="264" fill="#F5F5F5"/>
<path d="M329 -4H-3V268H329V-4Z" fill="white"/>
<path d="M76.1317 210.272H86.4247L94.4537 90.6917C95.2153 86.0147 98.2068 82.0008 102.471 79.9345C106.736 77.8683 111.74 78.0091 115.882 80.3109C120.025 82.6127 122.787 86.7876 123.285 91.5V94.033C123.678 104.902 128.361 115.173 136.31 122.596C144.259 130.02 154.824 133.991 165.695 133.642C176.565 133.991 187.13 130.02 195.079 122.596C203.028 115.173 207.711 104.902 208.105 94.033V91.5C208.287 87.8404 209.906 84.4006 212.61 81.9282C215.315 79.4559 218.886 78.1512 222.547 78.2977C226.067 78.167 229.506 79.3719 232.174 81.6705C234.843 83.9693 236.544 87.1918 236.936 90.6917L244.965 210.272H255.258C256.952 210.272 258.518 211.175 259.364 212.643C260.212 214.11 260.212 215.918 259.364 217.385C258.518 218.852 256.952 219.756 255.258 219.756H76.1311C74.4368 219.756 72.8712 218.852 72.0244 217.385C71.1769 215.918 71.1769 214.11 72.0244 212.643C72.8713 211.175 74.4374 210.272 76.1317 210.272ZM113.853 91.7166C113.853 89.6687 111.59 87.9446 108.895 87.9446C107.771 87.8347 106.647 88.1335 105.726 88.7871C104.805 89.4401 104.152 90.4037 103.884 91.5006L95.6394 210.272H113.799L113.853 91.7166ZM165.695 143.072C157.477 143.114 149.363 141.235 142.001 137.586C134.638 133.938 128.229 128.619 123.285 122.055V210.272H208.105V122.055C203.162 128.619 196.752 133.938 189.389 137.586C182.026 141.235 173.913 143.114 165.695 143.072ZM227.56 91.285C227.293 90.1881 226.639 89.2244 225.718 88.5708C224.797 87.9178 223.672 87.6185 222.548 87.7283C219.854 87.7283 217.59 89.453 217.59 91.5004V210.055L235.75 210.056L227.56 91.285Z" fill="#F24088"/>
<mask id="mask0_0_1" style="mask-type:luminance" maskUnits="userSpaceOnUse" x="135" y="44" width="62" height="62">
<path d="M197 44H135V106H197V44Z" fill="white"/>
</mask>
<g mask="url(#mask0_0_1)">
<mask id="mask1_0_1" style="mask-type:alpha" maskUnits="userSpaceOnUse" x="135" y="44" width="62" height="62">
<path fill-rule="evenodd" clip-rule="evenodd" d="M135 44H197V106H135V44Z" fill="white"/>
</mask>
<g mask="url(#mask1_0_1)">
<path fill-rule="evenodd" clip-rule="evenodd" d="M166 106C148.95 106 135 92.0502 135 74.8452C135.155 57.7952 148.95 43.8452 166.155 44.0002C183.205 44.1552 197 57.9502 197 75.3102C196.845 92.2052 183.05 106 166 106Z" fill="#F24088"/>
<path fill-rule="evenodd" clip-rule="evenodd" d="M168.945 71.2801L168.015 76.2401L176.85 77.4801L176.23 79.8051L167.55 78.5651C166.93 80.5801 166.62 82.7501 165.845 84.6101C165.07 86.7801 164.295 88.9501 163.365 90.9651C162.125 93.6001 159.955 95.4601 157.01 95.9251C155.305 96.2351 153.445 96.0801 152.05 94.9951C151.585 94.6851 151.12 94.0651 151.12 93.6001C151.12 92.9801 151.43 92.2051 151.895 91.8951C152.205 91.7401 152.98 91.8951 153.445 92.0501C153.91 92.5151 154.375 93.1351 154.685 93.7551C155.615 94.9951 156.855 95.1501 158.095 94.2201C159.49 92.9801 160.265 91.2751 160.73 89.5701C161.66 85.8501 162.59 82.2851 163.365 78.5651V77.9451L155.15 76.7051L155.46 74.3801L163.985 75.6201L165.07 70.8151L156.235 69.4201L156.545 66.9401L165.69 68.1801C166 67.2501 166.155 66.4751 166.465 65.7001C167.24 62.9101 168.015 60.1201 169.875 57.6401C171.735 55.1601 173.905 53.6101 177.16 53.7651C178.555 53.7651 179.95 54.2301 180.88 55.3151C181.035 55.4701 181.345 55.7801 181.345 56.0901C181.345 56.7101 181.345 57.4851 180.88 57.9501C180.26 58.4151 179.485 58.2601 178.865 57.6401C178.4 57.1751 178.09 56.7101 177.625 56.2451C176.695 55.0051 175.3 54.8501 174.215 55.9351C173.44 56.7101 172.665 57.7951 172.2 58.8801C171.115 62.1351 170.34 65.5451 169.255 68.9551L177.78 70.1951L177.16 72.5201L168.945 71.2801Z" fill="white"/>
</g>
</g>
</svg>
