<svg width="395" height="277" viewBox="0 0 395 277" fill="none" xmlns="http://www.w3.org/2000/svg">
<rect width="395" height="277" fill="#F5F5F5"/>
<g filter="url(#filter0_b_0_1)">
<path d="M398 -15H-7V282H398V-15Z" fill="white"/>
</g>
<circle cx="195.5" cy="140.5" r="107" stroke="black"/>
<path d="M134.244 177.497H141.284L146.775 95.5057C147.296 92.2989 149.342 89.5467 152.259 88.1299C155.176 86.7132 158.598 86.8097 161.431 88.388C164.265 89.9663 166.153 92.8288 166.494 96.0599V97.7967C166.763 105.249 169.966 112.292 175.403 117.381C180.839 122.472 188.065 125.194 195.5 124.955C202.935 125.194 210.161 122.472 215.598 117.381C221.034 112.292 224.237 105.249 224.507 97.7967V96.0599C224.631 93.5507 225.738 91.1921 227.588 89.4969C229.438 87.8018 231.88 86.9072 234.384 87.0076C236.792 86.918 239.144 87.7442 240.969 89.3202C242.794 90.8964 243.957 93.106 244.225 95.5057L249.717 177.497H256.757C257.915 177.497 258.986 178.116 259.565 179.123C260.145 180.129 260.145 181.368 259.565 182.374C258.986 183.38 257.915 184 256.757 184H134.243C133.085 184 132.014 183.38 131.435 182.374C130.855 181.368 130.855 180.129 131.435 179.123C132.014 178.116 133.085 177.497 134.244 177.497ZM160.044 96.2084C160.044 94.8043 158.496 93.6221 156.653 93.6221C155.884 93.5468 155.114 93.7517 154.485 94.1998C153.855 94.6475 153.408 95.3082 153.225 96.0603L147.586 177.497H160.007L160.044 96.2084ZM195.5 131.421C189.88 131.45 184.331 130.161 179.295 127.659C174.259 125.158 169.875 121.511 166.494 117.01V177.497H224.507V117.01C221.126 121.511 216.742 125.158 211.706 127.659C206.67 130.161 201.121 131.45 195.5 131.421ZM237.813 95.9125C237.63 95.1604 237.183 94.4996 236.553 94.0515C235.923 93.6038 235.154 93.3985 234.385 93.4738C232.542 93.4738 230.994 94.6564 230.994 96.0602V177.348L243.414 177.349L237.813 95.9125Z" fill="black"/>
<mask id="mask0_0_1" style="mask-type:luminance" maskUnits="userSpaceOnUse" x="172" y="151" width="47" height="47">
<path d="M219 151H172V198H219V151Z" fill="white"/>
</mask>
<g mask="url(#mask0_0_1)">
<mask id="mask1_0_1" style="mask-type:alpha" maskUnits="userSpaceOnUse" x="172" y="151" width="47" height="47">
<path fill-rule="evenodd" clip-rule="evenodd" d="M172 151H219V198H172V151Z" fill="white"/>
</mask>
<g mask="url(#mask1_0_1)">
<path fill-rule="evenodd" clip-rule="evenodd" d="M195.5 198C182.575 198 172 187.425 172 174.382C172.117 161.457 182.575 150.882 195.617 151C208.542 151.117 219 161.575 219 174.735C218.882 187.542 208.425 198 195.5 198Z" fill="#F24088"/>
<path fill-rule="evenodd" clip-rule="evenodd" d="M197.733 171.68L197.028 175.44L203.725 176.38L203.255 178.143L196.675 177.203C196.205 178.73 195.97 180.375 195.383 181.785C194.795 183.43 194.207 185.075 193.502 186.603C192.562 188.6 190.918 190.01 188.685 190.363C187.393 190.598 185.982 190.48 184.925 189.658C184.572 189.423 184.22 188.953 184.22 188.6C184.22 188.13 184.455 187.543 184.807 187.308C185.042 187.19 185.63 187.308 185.982 187.425C186.335 187.778 186.687 188.248 186.922 188.718C187.628 189.658 188.568 189.775 189.508 189.07C190.565 188.13 191.153 186.838 191.505 185.545C192.21 182.725 192.915 180.023 193.502 177.203V176.733L187.275 175.793L187.51 174.03L193.973 174.97L194.795 171.328L188.098 170.27L188.333 168.39L195.265 169.33C195.5 168.625 195.617 168.038 195.852 167.45C196.44 165.335 197.028 163.22 198.438 161.34C199.848 159.46 201.493 158.285 203.96 158.403C205.018 158.403 206.075 158.755 206.78 159.578C206.897 159.695 207.133 159.93 207.133 160.165C207.133 160.635 207.132 161.223 206.78 161.575C206.31 161.928 205.722 161.81 205.252 161.34C204.9 160.988 204.665 160.635 204.313 160.283C203.608 159.343 202.55 159.225 201.727 160.048C201.14 160.635 200.552 161.458 200.2 162.28C199.377 164.748 198.79 167.333 197.967 169.918L204.43 170.858L203.96 172.62L197.733 171.68Z" fill="white"/>
</g>
</g>
<defs>
<filter id="filter0_b_0_1" x="-11" y="-19" width="413" height="305" filterUnits="userSpaceOnUse" color-interpolation-filters="sRGB">
<feFlood flood-opacity="0" result="BackgroundImageFix"/>
<feGaussianBlur in="BackgroundImageFix" stdDeviation="2"/>
<feComposite in2="SourceAlpha" operator="in" result="effect1_backgroundBlur_0_1"/>
<feBlend mode="normal" in="SourceGraphic" in2="effect1_backgroundBlur_0_1" result="shape"/>
</filter>
</defs>
</svg>
