<svg width="363" height="254" viewBox="0 0 363 254" fill="none" xmlns="http://www.w3.org/2000/svg">
<rect width="363" height="254" fill="#F5F5F5"/>
<g filter="url(#filter0_b_0_1)">
<path d="M386 -27H-19V270H386V-27Z" fill="white"/>
</g>
<circle cx="182.5" cy="130.5" r="65" stroke="black"/>
<path d="M121.244 165.497H128.284L133.775 83.5057C134.296 80.2989 136.342 77.5467 139.259 76.1299C142.176 74.7132 145.598 74.8097 148.431 76.388C151.265 77.9663 153.153 80.8288 153.494 84.0599V85.7967C153.763 93.2491 156.966 100.292 162.403 105.381C167.839 110.472 175.065 113.194 182.5 112.955C189.935 113.194 197.161 110.472 202.598 105.381C208.034 100.292 211.237 93.2491 211.507 85.7967V84.0599C211.631 81.5507 212.738 79.1921 214.588 77.4969C216.438 75.8018 218.88 74.9072 221.384 75.0076C223.792 74.918 226.144 75.7442 227.969 77.3202C229.794 78.8964 230.957 81.106 231.225 83.5057L236.717 165.497H243.757C244.915 165.497 245.986 166.116 246.565 167.123C247.145 168.129 247.145 169.368 246.565 170.374C245.986 171.38 244.915 172 243.757 172H121.243C120.085 172 119.014 171.38 118.435 170.374C117.855 169.368 117.855 168.129 118.435 167.123C119.014 166.116 120.085 165.497 121.244 165.497ZM147.044 84.2084C147.044 82.8043 145.496 81.6221 143.653 81.6221C142.884 81.5468 142.114 81.7517 141.485 82.1998C140.855 82.6475 140.408 83.3082 140.225 84.0603L134.586 165.497H147.007L147.044 84.2084ZM182.5 119.421C176.88 119.45 171.331 118.161 166.295 115.659C161.259 113.158 156.875 109.511 153.494 105.01V165.497H211.507V105.01C208.126 109.511 203.742 113.158 198.706 115.659C193.67 118.161 188.121 119.45 182.5 119.421ZM224.813 83.9125C224.63 83.1604 224.183 82.4996 223.553 82.0515C222.923 81.6038 222.154 81.3985 221.385 81.4738C219.542 81.4738 217.994 82.6564 217.994 84.0602V165.348L230.414 165.349L224.813 83.9125Z" fill="black"/>
<mask id="mask0_0_1" style="mask-type:luminance" maskUnits="userSpaceOnUse" x="159" y="139" width="47" height="47">
<path d="M206 139H159V186H206V139Z" fill="white"/>
</mask>
<g mask="url(#mask0_0_1)">
<mask id="mask1_0_1" style="mask-type:alpha" maskUnits="userSpaceOnUse" x="159" y="139" width="47" height="47">
<path fill-rule="evenodd" clip-rule="evenodd" d="M159 139H206V186H159V139Z" fill="white"/>
</mask>
<g mask="url(#mask1_0_1)">
<path fill-rule="evenodd" clip-rule="evenodd" d="M182.5 186C169.575 186 159 175.425 159 162.382C159.117 149.457 169.575 138.882 182.617 139C195.542 139.117 206 149.575 206 162.735C205.882 175.542 195.425 186 182.5 186Z" fill="#F24088"/>
<path fill-rule="evenodd" clip-rule="evenodd" d="M184.733 159.68L184.028 163.44L190.725 164.38L190.255 166.143L183.675 165.203C183.205 166.73 182.97 168.375 182.383 169.785C181.795 171.43 181.207 173.075 180.502 174.603C179.562 176.6 177.918 178.01 175.685 178.363C174.393 178.598 172.982 178.48 171.925 177.658C171.572 177.423 171.22 176.953 171.22 176.6C171.22 176.13 171.455 175.543 171.807 175.308C172.042 175.19 172.63 175.308 172.982 175.425C173.335 175.778 173.687 176.248 173.922 176.718C174.628 177.658 175.568 177.775 176.508 177.07C177.565 176.13 178.153 174.838 178.505 173.545C179.21 170.725 179.915 168.023 180.502 165.203V164.733L174.275 163.793L174.51 162.03L180.973 162.97L181.795 159.328L175.098 158.27L175.332 156.39L182.265 157.33C182.5 156.625 182.617 156.038 182.852 155.45C183.44 153.335 184.028 151.22 185.438 149.34C186.848 147.46 188.493 146.285 190.96 146.403C192.018 146.403 193.075 146.755 193.78 147.578C193.897 147.695 194.133 147.93 194.133 148.165C194.133 148.635 194.132 149.223 193.78 149.575C193.31 149.928 192.722 149.81 192.252 149.34C191.9 148.988 191.665 148.635 191.312 148.283C190.608 147.343 189.55 147.225 188.727 148.048C188.14 148.635 187.552 149.458 187.2 150.28C186.377 152.748 185.79 155.333 184.967 157.918L191.43 158.858L190.96 160.62L184.733 159.68Z" fill="white"/>
</g>
</g>
<defs>
<filter id="filter0_b_0_1" x="-23" y="-31" width="413" height="305" filterUnits="userSpaceOnUse" color-interpolation-filters="sRGB">
<feFlood flood-opacity="0" result="BackgroundImageFix"/>
<feGaussianBlur in="BackgroundImageFix" stdDeviation="2"/>
<feComposite in2="SourceAlpha" operator="in" result="effect1_backgroundBlur_0_1"/>
<feBlend mode="normal" in="SourceGraphic" in2="effect1_backgroundBlur_0_1" result="shape"/>
</filter>
</defs>
</svg>
