<svg width="298" height="237" viewBox="0 0 298 237" fill="none" xmlns="http://www.w3.org/2000/svg">
<rect width="298" height="237" fill="#F5F5F5"/>
<path d="M302 0H1V237H302V0Z" fill="white"/>
<path d="M62.1317 195.272H72.4247L80.4537 75.6917C81.2153 71.0147 84.2068 67.0008 88.4714 64.9345C92.736 62.8683 97.7401 63.0091 101.882 65.3109C106.025 67.6127 108.787 71.7876 109.285 76.5V79.033C109.678 89.9019 114.361 100.173 122.31 107.596C130.259 115.02 140.824 118.991 151.695 118.642C162.565 118.991 173.13 115.02 181.079 107.596C189.028 100.173 193.711 89.9019 194.105 79.033V76.5C194.287 72.8404 195.906 69.4006 198.61 66.9282C201.315 64.4559 204.886 63.1512 208.547 63.2977C212.067 63.167 215.506 64.3719 218.174 66.6705C220.843 68.9693 222.544 72.1918 222.936 75.6917L230.965 195.272H241.258C242.952 195.272 244.518 196.175 245.364 197.643C246.212 199.11 246.212 200.918 245.364 202.385C244.518 203.852 242.952 204.756 241.258 204.756H62.1311C60.4368 204.756 58.8712 203.852 58.0244 202.385C57.1769 200.918 57.1769 199.11 58.0244 197.643C58.8713 196.175 60.4374 195.272 62.1317 195.272ZM99.8534 76.7166C99.8534 74.6687 97.5901 72.9446 94.8954 72.9446C93.7713 72.8347 92.6466 73.1335 91.7259 73.7871C90.8052 74.4401 90.1516 75.4037 89.8844 76.5006L81.6394 195.272H99.7994L99.8534 76.7166ZM151.695 128.072C143.477 128.114 135.363 126.235 128.001 122.586C120.638 118.938 114.229 113.619 109.285 107.055V195.272H194.105V107.055C189.162 113.619 182.752 118.938 175.389 122.586C168.026 126.235 159.913 128.114 151.695 128.072ZM213.56 76.285C213.293 75.1881 212.639 74.2244 211.718 73.5708C210.797 72.9178 209.672 72.6185 208.548 72.7283C205.854 72.7283 203.59 74.453 203.59 76.5004V195.055L221.75 195.056L213.56 76.285Z" fill="#F24088"/>
<mask id="mask0_0_1" style="mask-type:luminance" maskUnits="userSpaceOnUse" x="121" y="29" width="62" height="62">
<path d="M183 29H121V91H183V29Z" fill="white"/>
</mask>
<g mask="url(#mask0_0_1)">
<mask id="mask1_0_1" style="mask-type:alpha" maskUnits="userSpaceOnUse" x="121" y="29" width="62" height="62">
<path fill-rule="evenodd" clip-rule="evenodd" d="M121 29H183V91H121V29Z" fill="white"/>
</mask>
<g mask="url(#mask1_0_1)">
<path fill-rule="evenodd" clip-rule="evenodd" d="M152 91.0002C134.95 91.0002 121 77.0502 121 59.8452C121.155 42.7952 134.95 28.8452 152.155 29.0002C169.205 29.1552 183 42.9502 183 60.3102C182.845 77.2052 169.05 91.0002 152 91.0002Z" fill="#F24088"/>
<path fill-rule="evenodd" clip-rule="evenodd" d="M154.945 56.2801L154.015 61.2401L162.85 62.4801L162.23 64.8051L153.55 63.5651C152.93 65.5801 152.62 67.7501 151.845 69.6101C151.07 71.7801 150.295 73.9501 149.365 75.9651C148.125 78.6001 145.955 80.4601 143.01 80.9251C141.305 81.2351 139.445 81.0801 138.05 79.9951C137.585 79.6851 137.12 79.0651 137.12 78.6001C137.12 77.9801 137.43 77.2051 137.895 76.8951C138.205 76.7401 138.98 76.8951 139.445 77.0501C139.91 77.5151 140.375 78.1351 140.685 78.7551C141.615 79.9951 142.855 80.1501 144.095 79.2201C145.49 77.9801 146.265 76.2751 146.73 74.5701C147.66 70.8501 148.59 67.2851 149.365 63.5651V62.9451L141.15 61.7051L141.46 59.3801L149.985 60.6201L151.07 55.8151L142.235 54.4201L142.545 51.9401L151.69 53.1801C152 52.2501 152.155 51.4751 152.465 50.7001C153.24 47.9101 154.015 45.1201 155.875 42.6401C157.735 40.1601 159.905 38.6101 163.16 38.7651C164.555 38.7651 165.95 39.2301 166.88 40.3151C167.035 40.4701 167.345 40.7801 167.345 41.0901C167.345 41.7101 167.345 42.4851 166.88 42.9501C166.26 43.4151 165.485 43.2601 164.865 42.6401C164.4 42.1751 164.09 41.7101 163.625 41.2451C162.695 40.0051 161.3 39.8501 160.215 40.9351C159.44 41.7101 158.665 42.7951 158.2 43.8801C157.115 47.1351 156.34 50.5451 155.255 53.9551L163.78 55.1951L163.16 57.5201L154.945 56.2801Z" fill="white"/>
</g>
</g>
</svg>
