<svg width="395" height="277" viewBox="0 0 395 277" fill="none" xmlns="http://www.w3.org/2000/svg">
<rect width="395" height="277" fill="#F5F5F5"/>
<path d="M400 -16H-5V281H400V-16Z" fill="white"/>
<path d="M108.132 223.272H118.425L126.454 103.692C127.215 99.0147 130.207 95.0008 134.471 92.9345C138.736 90.8683 143.74 91.0091 147.882 93.3109C152.025 95.6127 154.787 99.7876 155.285 104.5V107.033C155.678 117.902 160.361 128.173 168.31 135.596C176.259 143.02 186.824 146.991 197.695 146.642C208.565 146.991 219.13 143.02 227.079 135.596C235.028 128.173 239.711 117.902 240.105 107.033V104.5C240.287 100.84 241.906 97.4006 244.61 94.9282C247.315 92.4559 250.886 91.1512 254.547 91.2977C258.067 91.167 261.506 92.3719 264.174 94.6705C266.843 96.9693 268.544 100.192 268.936 103.692L276.965 223.272H287.258C288.952 223.272 290.518 224.175 291.364 225.643C292.212 227.11 292.212 228.918 291.364 230.385C290.518 231.852 288.952 232.756 287.258 232.756H108.131C106.437 232.756 104.871 231.852 104.024 230.385C103.177 228.918 103.177 227.11 104.024 225.643C104.871 224.175 106.437 223.272 108.132 223.272ZM145.853 104.717C145.853 102.669 143.59 100.945 140.895 100.945C139.771 100.835 138.647 101.133 137.726 101.787C136.805 102.44 136.152 103.404 135.884 104.501L127.639 223.272H145.799L145.853 104.717ZM197.695 156.072C189.477 156.114 181.363 154.235 174.001 150.586C166.638 146.938 160.229 141.619 155.285 135.055V223.272H240.105V135.055C235.162 141.619 228.752 146.938 221.389 150.586C214.026 154.235 205.913 156.114 197.695 156.072ZM259.56 104.285C259.293 103.188 258.639 102.224 257.718 101.571C256.797 100.918 255.672 100.618 254.548 100.728C251.854 100.728 249.59 102.453 249.59 104.5V223.055L267.75 223.056L259.56 104.285Z" fill="#F24088"/>
<mask id="mask0_0_1" style="mask-type:luminance" maskUnits="userSpaceOnUse" x="167" y="57" width="62" height="62">
<path d="M229 57H167V119H229V57Z" fill="white"/>
</mask>
<g mask="url(#mask0_0_1)">
<mask id="mask1_0_1" style="mask-type:alpha" maskUnits="userSpaceOnUse" x="167" y="57" width="62" height="62">
<path fill-rule="evenodd" clip-rule="evenodd" d="M167 57H229V119H167V57Z" fill="white"/>
</mask>
<g mask="url(#mask1_0_1)">
<path fill-rule="evenodd" clip-rule="evenodd" d="M198 119C180.95 119 167 105.05 167 87.8452C167.155 70.7952 180.95 56.8452 198.155 57.0002C215.205 57.1552 229 70.9502 229 88.3102C228.845 105.205 215.05 119 198 119Z" fill="#F24088"/>
<path fill-rule="evenodd" clip-rule="evenodd" d="M200.945 84.2801L200.015 89.2401L208.85 90.4801L208.23 92.8051L199.55 91.5651C198.93 93.5801 198.62 95.7501 197.845 97.6101C197.07 99.7801 196.295 101.95 195.365 103.965C194.125 106.6 191.955 108.46 189.01 108.925C187.305 109.235 185.445 109.08 184.05 107.995C183.585 107.685 183.12 107.065 183.12 106.6C183.12 105.98 183.43 105.205 183.895 104.895C184.205 104.74 184.98 104.895 185.445 105.05C185.91 105.515 186.375 106.135 186.685 106.755C187.615 107.995 188.855 108.15 190.095 107.22C191.49 105.98 192.265 104.275 192.73 102.57C193.66 98.8501 194.59 95.2851 195.365 91.5651V90.9451L187.15 89.7051L187.46 87.3801L195.985 88.6201L197.07 83.8151L188.235 82.4201L188.545 79.9401L197.69 81.1801C198 80.2501 198.155 79.4751 198.465 78.7001C199.24 75.9101 200.015 73.1201 201.875 70.6401C203.735 68.1601 205.905 66.6101 209.16 66.7651C210.555 66.7651 211.95 67.2301 212.88 68.3151C213.035 68.4701 213.345 68.7801 213.345 69.0901C213.345 69.7101 213.345 70.4851 212.88 70.9501C212.26 71.4151 211.485 71.2601 210.865 70.6401C210.4 70.1751 210.09 69.7101 209.625 69.2451C208.695 68.0051 207.3 67.8501 206.215 68.9351C205.44 69.7101 204.665 70.7951 204.2 71.8801C203.115 75.1351 202.34 78.5451 201.255 81.9551L209.78 83.1951L209.16 85.5201L200.945 84.2801Z" fill="white"/>
</g>
</g>
</svg>
