<svg width="395" height="289" viewBox="0 0 395 289" fill="none" xmlns="http://www.w3.org/2000/svg">
<rect width="395" height="289" fill="#F5F5F5"/>
<path d="M400 -4H-5V293H400V-4Z" fill="white"/>
<path d="M108.132 235.272H118.425L126.454 115.692C127.215 111.015 130.207 107.001 134.471 104.934C138.736 102.868 143.74 103.009 147.882 105.311C152.025 107.613 154.787 111.788 155.285 116.5V119.033C155.678 129.902 160.361 140.173 168.31 147.596C176.259 155.02 186.824 158.991 197.695 158.642C208.565 158.991 219.13 155.02 227.079 147.596C235.028 140.173 239.711 129.902 240.105 119.033V116.5C240.287 112.84 241.906 109.401 244.61 106.928C247.315 104.456 250.886 103.151 254.547 103.298C258.067 103.167 261.506 104.372 264.174 106.67C266.843 108.969 268.544 112.192 268.936 115.692L276.965 235.272H287.258C288.952 235.272 290.518 236.175 291.364 237.643C292.212 239.11 292.212 240.918 291.364 242.385C290.518 243.852 288.952 244.756 287.258 244.756H108.131C106.437 244.756 104.871 243.852 104.024 242.385C103.177 240.918 103.177 239.11 104.024 237.643C104.871 236.175 106.437 235.272 108.132 235.272ZM145.853 116.717C145.853 114.669 143.59 112.945 140.895 112.945C139.771 112.835 138.647 113.133 137.726 113.787C136.805 114.44 136.152 115.404 135.884 116.501L127.639 235.272H145.799L145.853 116.717ZM197.695 168.072C189.477 168.114 181.363 166.235 174.001 162.586C166.638 158.938 160.229 153.619 155.285 147.055V235.272H240.105V147.055C235.162 153.619 228.752 158.938 221.389 162.586C214.026 166.235 205.913 168.114 197.695 168.072ZM259.56 116.285C259.293 115.188 258.639 114.224 257.718 113.571C256.797 112.918 255.672 112.618 254.548 112.728C251.854 112.728 249.59 114.453 249.59 116.5V235.055L267.75 235.056L259.56 116.285Z" fill="#F24088"/>
<mask id="mask0_0_1" style="mask-type:luminance" maskUnits="userSpaceOnUse" x="167" y="69" width="62" height="62">
<path d="M229 69H167V131H229V69Z" fill="white"/>
</mask>
<g mask="url(#mask0_0_1)">
<mask id="mask1_0_1" style="mask-type:alpha" maskUnits="userSpaceOnUse" x="167" y="69" width="62" height="62">
<path fill-rule="evenodd" clip-rule="evenodd" d="M167 69H229V131H167V69Z" fill="white"/>
</mask>
<g mask="url(#mask1_0_1)">
<path fill-rule="evenodd" clip-rule="evenodd" d="M198 131C180.95 131 167 117.05 167 99.8452C167.155 82.7952 180.95 68.8452 198.155 69.0002C215.205 69.1552 229 82.9502 229 100.31C228.845 117.205 215.05 131 198 131Z" fill="#F24088"/>
<path fill-rule="evenodd" clip-rule="evenodd" d="M200.945 96.2801L200.015 101.24L208.85 102.48L208.23 104.805L199.55 103.565C198.93 105.58 198.62 107.75 197.845 109.61C197.07 111.78 196.295 113.95 195.365 115.965C194.125 118.6 191.955 120.46 189.01 120.925C187.305 121.235 185.445 121.08 184.05 119.995C183.585 119.685 183.12 119.065 183.12 118.6C183.12 117.98 183.43 117.205 183.895 116.895C184.205 116.74 184.98 116.895 185.445 117.05C185.91 117.515 186.375 118.135 186.685 118.755C187.615 119.995 188.855 120.15 190.095 119.22C191.49 117.98 192.265 116.275 192.73 114.57C193.66 110.85 194.59 107.285 195.365 103.565V102.945L187.15 101.705L187.46 99.3801L195.985 100.62L197.07 95.8151L188.235 94.4201L188.545 91.9401L197.69 93.1801C198 92.2501 198.155 91.4751 198.465 90.7001C199.24 87.9101 200.015 85.1201 201.875 82.6401C203.735 80.1601 205.905 78.6101 209.16 78.7651C210.555 78.7651 211.95 79.2301 212.88 80.3151C213.035 80.4701 213.345 80.7801 213.345 81.0901C213.345 81.7101 213.345 82.4851 212.88 82.9501C212.26 83.4151 211.485 83.2601 210.865 82.6401C210.4 82.1751 210.09 81.7101 209.625 81.2451C208.695 80.0051 207.3 79.8501 206.215 80.9351C205.44 81.7101 204.665 82.7951 204.2 83.8801C203.115 87.1351 202.34 90.5451 201.255 93.9551L209.78 95.1951L209.16 97.5201L200.945 96.2801Z" fill="white"/>
</g>
</g>
</svg>
