<svg width="395" height="277" viewBox="0 0 395 277" fill="none" xmlns="http://www.w3.org/2000/svg">
<rect width="395" height="277" fill="#F5F5F5"/>
<g filter="url(#filter0_b_0_1)">
<path d="M400 -15H-5V282H400V-15Z" fill="white"/>
</g>
<path d="M136.244 177.497H143.284L148.775 95.5057C149.296 92.2989 151.342 89.5467 154.259 88.1299C157.176 86.7132 160.598 86.8097 163.431 88.388C166.265 89.9663 168.153 92.8288 168.494 96.0599V97.7967C168.763 105.249 171.966 112.292 177.403 117.381C182.839 122.472 190.065 125.194 197.5 124.955C204.935 125.194 212.161 122.472 217.598 117.381C223.034 112.292 226.237 105.249 226.507 97.7967V96.0599C226.631 93.5507 227.738 91.1921 229.588 89.4969C231.438 87.8018 233.88 86.9072 236.384 87.0076C238.792 86.918 241.144 87.7442 242.969 89.3202C244.794 90.8964 245.957 93.106 246.225 95.5057L251.717 177.497H258.757C259.915 177.497 260.986 178.116 261.565 179.123C262.145 180.129 262.145 181.368 261.565 182.374C260.986 183.38 259.915 184 258.757 184H136.243C135.085 184 134.014 183.38 133.435 182.374C132.855 181.368 132.855 180.129 133.435 179.123C134.014 178.116 135.085 177.497 136.244 177.497ZM162.044 96.2084C162.044 94.8043 160.496 93.6221 158.653 93.6221C157.884 93.5468 157.114 93.7517 156.485 94.1998C155.855 94.6475 155.408 95.3082 155.225 96.0603L149.586 177.497H162.007L162.044 96.2084ZM197.5 131.421C191.88 131.45 186.331 130.161 181.295 127.659C176.259 125.158 171.875 121.511 168.494 117.01V177.497H226.507V117.01C223.126 121.511 218.742 125.158 213.706 127.659C208.67 130.161 203.121 131.45 197.5 131.421ZM239.813 95.9125C239.63 95.1604 239.183 94.4996 238.553 94.0515C237.923 93.6038 237.154 93.3985 236.385 93.4738C234.542 93.4738 232.994 94.6564 232.994 96.0602V177.348L245.414 177.349L239.813 95.9125Z" fill="black"/>
<mask id="mask0_0_1" style="mask-type:luminance" maskUnits="userSpaceOnUse" x="174" y="151" width="47" height="47">
<path d="M221 151H174V198H221V151Z" fill="white"/>
</mask>
<g mask="url(#mask0_0_1)">
<mask id="mask1_0_1" style="mask-type:alpha" maskUnits="userSpaceOnUse" x="174" y="151" width="47" height="47">
<path fill-rule="evenodd" clip-rule="evenodd" d="M174 151H221V198H174V151Z" fill="white"/>
</mask>
<g mask="url(#mask1_0_1)">
<path fill-rule="evenodd" clip-rule="evenodd" d="M197.5 198C184.575 198 174 187.425 174 174.382C174.117 161.457 184.575 150.882 197.617 151C210.542 151.117 221 161.575 221 174.735C220.882 187.542 210.425 198 197.5 198Z" fill="#F24088"/>
<path fill-rule="evenodd" clip-rule="evenodd" d="M199.733 171.68L199.028 175.44L205.725 176.38L205.255 178.143L198.675 177.203C198.205 178.73 197.97 180.375 197.383 181.785C196.795 183.43 196.207 185.075 195.502 186.603C194.562 188.6 192.918 190.01 190.685 190.363C189.393 190.598 187.982 190.48 186.925 189.658C186.572 189.423 186.22 188.953 186.22 188.6C186.22 188.13 186.455 187.543 186.807 187.308C187.042 187.19 187.63 187.308 187.982 187.425C188.335 187.778 188.687 188.248 188.922 188.718C189.628 189.658 190.568 189.775 191.508 189.07C192.565 188.13 193.153 186.838 193.505 185.545C194.21 182.725 194.915 180.023 195.502 177.203V176.733L189.275 175.793L189.51 174.03L195.973 174.97L196.795 171.328L190.098 170.27L190.333 168.39L197.265 169.33C197.5 168.625 197.617 168.038 197.852 167.45C198.44 165.335 199.028 163.22 200.438 161.34C201.848 159.46 203.493 158.285 205.96 158.403C207.018 158.403 208.075 158.755 208.78 159.578C208.897 159.695 209.133 159.93 209.133 160.165C209.133 160.635 209.132 161.223 208.78 161.575C208.31 161.928 207.722 161.81 207.252 161.34C206.9 160.988 206.665 160.635 206.313 160.283C205.608 159.343 204.55 159.225 203.727 160.048C203.14 160.635 202.552 161.458 202.2 162.28C201.377 164.748 200.79 167.333 199.967 169.918L206.43 170.858L205.96 172.62L199.733 171.68Z" fill="white"/>
</g>
</g>
<defs>
<filter id="filter0_b_0_1" x="-9" y="-19" width="413" height="305" filterUnits="userSpaceOnUse" color-interpolation-filters="sRGB">
<feFlood flood-opacity="0" result="BackgroundImageFix"/>
<feGaussianBlur in="BackgroundImageFix" stdDeviation="2"/>
<feComposite in2="SourceAlpha" operator="in" result="effect1_backgroundBlur_0_1"/>
<feBlend mode="normal" in="SourceGraphic" in2="effect1_backgroundBlur_0_1" result="shape"/>
</filter>
</defs>
</svg>
