<svg width="180" height="35" viewBox="0 0 180 35" fill="none" xmlns="http://www.w3.org/2000/svg">
<path d="M0.0560001 34V33.52L0.92 33.232C1.56 33.008 1.992 32.704 2.216 32.32C2.44 31.936 2.552 31.424 2.552 30.784C2.584 28.864 2.6 26.928 2.6 24.976C2.6 23.024 2.6 21.072 2.6 19.12V17.2C2.6 15.28 2.6 13.36 2.6 11.44C2.6 9.488 2.584 7.552 2.552 5.632C2.552 4.992 2.456 4.48 2.264 4.096C2.104 3.712 1.72 3.408 1.112 3.184L0.0560001 2.8V2.32H23.288L23.624 10.288H23.144L20.408 5.248C20.088 4.64 19.72 4.16 19.304 3.808C18.888 3.456 18.312 3.28 17.576 3.28H9.848C9.816 5.552 9.8 7.872 9.8 10.24C9.8 12.608 9.8 14.96 9.8 17.296H14.792C15.528 17.296 16.072 17.136 16.424 16.816C16.776 16.496 17.112 16.032 17.432 15.424L18.44 13.6H18.92V22H18.44L17.384 20.176C17.064 19.6 16.728 19.136 16.376 18.784C16.056 18.432 15.528 18.256 14.792 18.256H9.8C9.8 20.496 9.8 22.64 9.8 24.688C9.8 26.704 9.816 28.688 9.848 30.64C9.848 31.888 10.456 32.704 11.672 33.088L13.112 33.52V34H0.0560001ZM31.4769 7.696C30.3889 7.696 29.4609 7.36 28.6929 6.688C27.9569 5.984 27.5889 5.104 27.5889 4.048C27.5889 2.96 27.9569 2.08 28.6929 1.408C29.4609 0.735998 30.3889 0.399998 31.4769 0.399998C32.5649 0.399998 33.4769 0.735998 34.2129 1.408C34.9489 2.08 35.3169 2.96 35.3169 4.048C35.3169 5.104 34.9489 5.984 34.2129 6.688C33.4769 7.36 32.5649 7.696 31.4769 7.696ZM25.8129 34V33.52L26.4849 33.328C27.1249 33.136 27.5569 32.848 27.7809 32.464C28.0369 32.08 28.1649 31.568 28.1649 30.928V15.904C28.1649 15.232 28.0369 14.736 27.7809 14.416C27.5569 14.064 27.1249 13.824 26.4849 13.696L25.8129 13.552V13.072L34.5969 10.24L35.0769 10.72L34.9329 17.536V30.976C34.9329 31.616 35.0449 32.128 35.2689 32.512C35.5249 32.896 35.9569 33.184 36.5649 33.376L37.0449 33.52V34H25.8129ZM40.274 34V33.52L40.85 33.328C42.002 32.944 42.578 32.144 42.578 30.928V5.248C42.578 4.608 42.45 4.128 42.194 3.808C41.938 3.456 41.49 3.2 40.85 3.04L40.226 2.896V2.416L49.01 0.351998L49.586 0.783998L49.394 7.504V23.92C49.394 25.104 49.394 26.288 49.394 27.472C49.426 28.624 49.442 29.776 49.442 30.928C49.442 31.568 49.57 32.096 49.826 32.512C50.082 32.896 50.514 33.184 51.122 33.376L51.746 33.52V34H40.274Z" fill="black"/>
<path d="M54.9204 34V33.52L55.8804 33.184C56.5204 32.992 56.9364 32.704 57.1284 32.32C57.3524 31.936 57.4644 31.424 57.4644 30.784V5.632C57.4644 4.992 57.3524 4.48 57.1284 4.096C56.9044 3.712 56.4724 3.408 55.8324 3.184L54.9204 2.8V2.32H66.5844C71.3524 2.32 74.7924 3.2 76.9044 4.96C79.0484 6.688 80.1204 8.976 80.1204 11.824C80.1204 13.648 79.6724 15.328 78.7764 16.864C77.9124 18.368 76.4724 19.568 74.4564 20.464C72.4404 21.36 69.7204 21.808 66.2964 21.808H64.6644V30.64C64.6644 31.888 65.2884 32.704 66.5364 33.088L67.9764 33.52V34H54.9204ZM64.6644 20.848H66.4884C68.0564 20.848 69.3364 20.592 70.3284 20.08C71.3204 19.568 72.0564 18.672 72.5364 17.392C73.0164 16.112 73.2564 14.336 73.2564 12.064C73.2564 9.76 72.9844 7.968 72.4404 6.688C71.9284 5.408 71.1604 4.528 70.1364 4.048C69.1124 3.536 67.8324 3.28 66.2964 3.28H64.6644V20.848ZM94.1315 34.72C91.6995 34.72 89.5875 34.224 87.7955 33.232C86.0035 32.208 84.6115 30.768 83.6195 28.912C82.6595 27.056 82.1795 24.88 82.1795 22.384C82.1795 19.888 82.6915 17.728 83.7155 15.904C84.7715 14.08 86.1955 12.672 87.9875 11.68C89.8115 10.688 91.8595 10.192 94.1315 10.192C96.4035 10.192 98.4355 10.688 100.227 11.68C102.019 12.64 103.427 14.032 104.451 15.856C105.507 17.68 106.035 19.856 106.035 22.384C106.035 24.912 105.539 27.104 104.547 28.96C103.587 30.784 102.211 32.208 100.419 33.232C98.6595 34.224 96.5635 34.72 94.1315 34.72ZM94.1315 33.76C95.2515 33.76 96.1475 33.44 96.8195 32.8C97.4915 32.16 97.9715 31.024 98.2595 29.392C98.5795 27.76 98.7395 25.456 98.7395 22.48C98.7395 19.472 98.5795 17.152 98.2595 15.52C97.9715 13.888 97.4915 12.752 96.8195 12.112C96.1475 11.472 95.2515 11.152 94.1315 11.152C93.0115 11.152 92.0995 11.472 91.3955 12.112C90.7235 12.752 90.2275 13.888 89.9075 15.52C89.6195 17.152 89.4755 19.472 89.4755 22.48C89.4755 25.456 89.6195 27.76 89.9075 29.392C90.2275 31.024 90.7235 32.16 91.3955 32.8C92.0995 33.44 93.0115 33.76 94.1315 33.76ZM109.104 34V33.52L109.776 33.328C110.896 33.008 111.456 32.224 111.456 30.976V15.952C111.456 15.248 111.344 14.736 111.12 14.416C110.896 14.064 110.464 13.824 109.824 13.696L109.104 13.504V13.024L117.312 10.24L117.792 10.72L118.176 13.6C119.296 12.608 120.56 11.792 121.968 11.152C123.376 10.512 124.768 10.192 126.144 10.192C128.256 10.192 129.872 10.768 130.992 11.92C132.144 13.072 132.72 14.832 132.72 17.2V31.024C132.72 32.272 133.328 33.056 134.544 33.376L134.976 33.52V34H123.648V33.52L124.272 33.328C125.392 32.976 125.952 32.192 125.952 30.976V15.664C125.952 13.616 124.928 12.592 122.88 12.592C121.472 12.592 119.936 13.296 118.272 14.704V31.024C118.272 32.272 118.832 33.056 119.952 33.376L120.384 33.52V34H109.104ZM146.699 34.72C144.651 34.72 143.051 34.208 141.899 33.184C140.779 32.16 140.219 30.528 140.219 28.288V11.872H136.907V11.392L138.059 11.2C139.051 10.976 139.899 10.656 140.603 10.24C141.339 9.824 142.059 9.264 142.763 8.56L146.699 4.192H147.179L147.035 10.912H152.411V11.872H146.987V29.152C146.987 30.272 147.227 31.12 147.707 31.696C148.219 32.272 148.859 32.56 149.627 32.56C150.299 32.56 150.891 32.4 151.403 32.08C151.915 31.728 152.427 31.264 152.939 30.688L153.419 31.168C152.779 32.256 151.899 33.12 150.779 33.76C149.659 34.4 148.299 34.72 146.699 34.72ZM167.887 34.72C165.455 34.72 163.343 34.224 161.551 33.232C159.759 32.208 158.367 30.768 157.375 28.912C156.415 27.056 155.935 24.88 155.935 22.384C155.935 19.888 156.447 17.728 157.471 15.904C158.527 14.08 159.951 12.672 161.743 11.68C163.567 10.688 165.615 10.192 167.887 10.192C170.159 10.192 172.191 10.688 173.983 11.68C175.775 12.64 177.183 14.032 178.207 15.856C179.263 17.68 179.791 19.856 179.791 22.384C179.791 24.912 179.295 27.104 178.303 28.96C177.343 30.784 175.967 32.208 174.175 33.232C172.415 34.224 170.319 34.72 167.887 34.72ZM167.887 33.76C169.007 33.76 169.903 33.44 170.575 32.8C171.247 32.16 171.727 31.024 172.015 29.392C172.335 27.76 172.495 25.456 172.495 22.48C172.495 19.472 172.335 17.152 172.015 15.52C171.727 13.888 171.247 12.752 170.575 12.112C169.903 11.472 169.007 11.152 167.887 11.152C166.767 11.152 165.855 11.472 165.151 12.112C164.479 12.752 163.983 13.888 163.663 15.52C163.375 17.152 163.231 19.472 163.231 22.48C163.231 25.456 163.375 27.76 163.663 29.392C163.983 31.024 164.479 32.16 165.151 32.8C165.855 33.44 166.767 33.76 167.887 33.76Z" fill="#F24088"/>
</svg>
