<svg width="54" height="54" viewBox="0 0 54 54" fill="none" xmlns="http://www.w3.org/2000/svg">
<g clip-path="url(#clip0_1_2)">
<path fill-rule="evenodd" clip-rule="evenodd" d="M2 2H52V52H2V2Z" stroke="#F24088" stroke-width="4"/>
<path d="M6.88 41V40.6L7.6 40.36C8.13333 40.1733 8.49333 39.92 8.68 39.6C8.86667 39.28 8.96 38.8533 8.96 38.32C8.98667 36.72 9 35.1067 9 33.48C9 31.8533 9 30.2267 9 28.6V27C9 25.4 9 23.8 9 22.2C9 20.5733 8.98667 18.96 8.96 17.36C8.96 16.8267 8.88 16.4 8.72 16.08C8.58667 15.76 8.26667 15.5067 7.76 15.32L6.88 15V14.6H26.24L26.52 21.24H26.12L23.84 17.04C23.5733 16.5333 23.2667 16.1333 22.92 15.84C22.5733 15.5467 22.0933 15.4 21.48 15.4H15.04C15.0133 17.2933 15 19.2267 15 21.2C15 23.1733 15 25.1333 15 27.08H19.16C19.7733 27.08 20.2267 26.9467 20.52 26.68C20.8133 26.4133 21.0933 26.0267 21.36 25.52L22.2 24H22.6V31H22.2L21.32 29.48C21.0533 29 20.7733 28.6133 20.48 28.32C20.2133 28.0267 19.7733 27.88 19.16 27.88H15C15 29.7467 15 31.5333 15 33.24C15 34.92 15.0133 36.5733 15.04 38.2C15.04 39.24 15.5467 39.92 16.56 40.24L17.76 40.6V41H6.88Z" fill="black"/>
<path d="M28.13 41V40.6L28.93 40.32C29.4633 40.16 29.81 39.92 29.97 39.6C30.1567 39.28 30.25 38.8533 30.25 38.32V17.36C30.25 16.8267 30.1567 16.4 29.97 16.08C29.7833 15.76 29.4233 15.5067 28.89 15.32L28.13 15V14.6H37.85C41.8233 14.6 44.69 15.3333 46.45 16.8C48.2367 18.24 49.13 20.1467 49.13 22.52C49.13 24.04 48.7567 25.44 48.01 26.72C47.29 27.9733 46.09 28.9733 44.41 29.72C42.73 30.4667 40.4633 30.84 37.61 30.84H36.25V38.2C36.25 39.24 36.77 39.92 37.81 40.24L39.01 40.6V41H28.13ZM36.25 30.04H37.77C39.0767 30.04 40.1433 29.8267 40.97 29.4C41.7967 28.9733 42.41 28.2267 42.81 27.16C43.21 26.0933 43.41 24.6133 43.41 22.72C43.41 20.8 43.1833 19.3067 42.73 18.24C42.3033 17.1733 41.6633 16.44 40.81 16.04C39.9567 15.6133 38.89 15.4 37.61 15.4H36.25V30.04Z" fill="#F24088"/>
</g>
<defs>
<clipPath id="clip0_1_2">
<rect width="54" height="54" fill="white"/>
</clipPath>
</defs>
</svg>
